#!OML:ASF I:\Actors\actors\Patient Classification 2\Patient 1\Session 1\actor1.ASF
:FULLY-SPECIFIED
:DEGREES
473
root -0.680817 18.7735 5.44427 4.36365 5.93064 -0.616649
lowerback 5.99934 4.73843 4.51978
upperback 0.846398 6.67394 2.84675
thorax -2.30139 3.2945 -0.0950467
lowerneck -10.2113 -9.80918 -7.4957
upperneck 20.2818 -13.1696 4.68246
head 8.8335 -6.30106 1.32425
rclavicle 1.01778e-013 1.90833e-014
rhumerus 21.7888 -4.85781 -77.9718
rradius 56.5492
rwrist -57.4879
rhand -5.25859 -53.0801
rfingers 7.12502
rthumb 20.5449 277.987
lclavicle 1.01778e-013 1.90833e-014
lhumerus -35.5412 -31.282 105.745
lradius 105.394
lwrist 74.1074
lhand -16.172 -11.9628
lfingers 7.12502
lthumb 10.0342 17.778
rfemur 0 0 0
rtibia 0
rfoot 0 0
rtoes 0
lfemur -10.0636 -8.92461 -12.7541
ltibia 21.9393
lfoot -19.9684 12.2216
ltoes -55.4187
474
root -0.665526 18.7739 5.4367 4.40651 6.00883 -0.572804
lowerback 6.12234 4.67885 4.85052
upperback 0.844118 6.62226 2.79835
thorax -2.33085 3.26433 -0.331176
lowerneck -10.3586 -9.79674 -7.42325
upperneck 20.2776 -13.1309 4.57039
head 8.84281 -6.28538 1.27418
rclavicle -4.79071e-014 -1.43125e-014
rhumerus 22.1919 -4.24573 -77.1834
rradius 55.6264
rwrist -58.5791
rhand -5.71336 -52.7833
rfingers 7.12502
rthumb 20.1079 278.237
lclavicle -4.79071e-014 -1.43125e-014
lhumerus -35.4792 -31.2804 105.73
lradius 105.379
lwrist 74.1962
lhand -16.1825 -11.9128
lfingers 7.12502
lthumb 10.0241 17.8285
rfemur 0 0 0
rtibia 0
rfoot 0 0
rtoes 0
lfemur -10.1321 -8.9175 -12.8559
ltibia 21.992
lfoot -19.9689 12.1727
ltoes -55.4324
475
root -0.662022 18.7744 5.43552 4.39996 6.0424 -0.64571
lowerback 6.22169 4.64828 5.11843
upperback 0.830106 6.60656 2.79763
thorax -2.37118 3.25249 -0.485606
lowerneck -10.5134 -9.79034 -7.37819
upperneck 20.379 -13.1179 4.53154
head 8.89875 -6.2747 1.24654
rclavicle -4.47266e-014 3.65764e-014
rhumerus 22.2062 -4.08882 -76.982
rradius 55.3465
rwrist -58.9747
rhand -6.08007 -52.7462
rfingers 7.12502
rthumb 19.7554 278.238
lclavicle -4.47266e-014 3.65764e-014
lhumerus -35.4581 -31.2819 105.719
lradius 105.365
lwrist 74.2286
lhand -16.1575 -11.8164
lfingers 7.12502
lthumb 10.0482 17.9238
rfemur 0 0 0
rtibia 0
rfoot 0 0
rtoes 0
lfemur -10.1658 -8.93269 -12.7899
ltibia 22.068
lfoot -20.0083 12.1635
ltoes -55.3893
476
root -0.66987 18.7752 5.44326 4.40388 6.00846 -0.781364
lowerback 6.197 4.65132 5.25903
upperback 0.815577 6.61953 2.82437
thorax -2.35936 3.25775 -0.533713
lowerneck -10.6676 -9.73989 -7.39524
upperneck 20.5427 -13.0685 4.63842
head 8.98884 -6.23611 1.27986
rclavicle -8.11041e-014 3.18055e-015
rhumerus 21.9713 -4.08158 -77.0308
rradius 55.4998
rwrist -59.1981
rhand -6.52793 -53.039
rfingers 7.12502
rthumb 19.3248 277.901
lclavicle -8.11041e-014 3.18055e-015
lhumerus -35.4223 -31.2909 105.692
lradius 105.307
lwrist 74.1389
lhand -16.1243 -11.8939
lfingers 7.12502
lthumb 10.0803 17.8447
rfemur 0 0 0
rtibia 0
rfoot 0 0
rtoes 0
lfemur -10.1926 -8.88047 -12.6122
ltibia 22.1267
lfoot -20.0474 12.158
ltoes -55.3484
477
root -0.677632 18.7758 5.45539 4.41563 5.96067 -0.919056
lowerback 6.07356 4.64831 5.34719
upperback 0.80147 6.61351 2.84936
thorax -2.29854 3.25552 -0.544811
lowerneck -10.7973 -9.64538 -7.38227
upperneck 20.765 -12.9698 4.74946
head 9.08968 -6.17136 1.31727
rclavicle 5.12864e-014 1.74931e-014
rhumerus 21.6031 -4.00371 -77.068
rradius 55.8747
rwrist -59.5757
rhand -7.00004 -53.4424
rfingers 7.12502
rthumb 18.8708 277.453
lclavicle 5.12864e-014 1.74931e-014
lhumerus -35.3633 -31.2475 105.655
lradius 105.248
lwrist 74.0086
lhand -16.0914 -12.0823
lfingers 7.12502
lthumb 10.1119 17.6547
rfemur 0 0 0
rtibia 0
rfoot 0 0
rtoes 0
lfemur -10.1818 -8.75515 -12.4358
ltibia 22.1236
lfoot -19.9942 12.1451
ltoes -55.4615
478
root -0.687713 18.7766 5.47085 4.47142 5.86141 -0.892684
lowerback 5.8596 4.66818 5.12996
upperback 0.768792 6.61258 2.85169
thorax -2.23781 3.25866 -0.407033
lowerneck -10.9563 -9.52465 -7.14611
upperneck 21.1239 -12.8255 4.60388
head 9.2059 -6.09151 1.23876
rclavicle 5.80451e-014 -6.36111e-015
rhumerus 21.1059 -3.91569 -77.1382
rradius 56.4343
rwrist -59.7852
rhand -7.47092 -53.7803
rfingers 7.12502
rthumb 18.4179 277.072
lclavicle 5.80451e-014 -6.36111e-015
lhumerus -35.3113 -31.1365 105.639
lradius 105.229
lwrist 73.9348
lhand -16.0653 -12.083
lfingers 7.12502
lthumb 10.1371 17.6528
rfemur 0 0 0
rtibia 0
rfoot 0 0
rtoes 0
lfemur -10.1684 -8.68642 -12.4306
ltibia 22.0821
lfoot -19.9862 12.2282
ltoes -55.5676
479
root -0.70001 18.7777 5.48733 4.61608 5.7534 -0.673227
lowerback 5.58994 4.7182 4.65115
upperback 0.677998 6.63514 2.79339
thorax -2.22744 3.27405 -0.189034
lowerneck -11.1669 -9.39587 -6.82551
upperneck 21.6567 -12.6598 4.31238
head 9.37577 -6.00599 1.09598
rclavicle -3.61788e-014 -3.18055e-015
rhumerus 20.4455 -3.76138 -77.0538
rradius 57.1233
rwrist -59.6577
rhand -7.74476 -54.0121
rfingers 7.12502
rthumb 18.1544 276.815
lclavicle -3.61788e-014 -3.18055e-015
lhumerus -35.3111 -31.0681 105.656
lradius 105.238
lwrist 73.9081
lhand -16.1022 -11.892
lfingers 7.12502
lthumb 10.1015 17.8455
rfemur 0 0 0
rtibia 0
rfoot 0 0
rtoes 0
lfemur -10.2295 -8.68249 -12.6124
ltibia 22.0318
lfoot -20.0532 12.3268
ltoes -55.5293
480
root -0.706599 18.7783 5.50083 4.70438 5.76835 -0.589717
lowerback 5.40844 4.71586 4.43234
upperback 0.554536 6.61286 2.74411
thorax -2.27332 3.2631 -0.109431
lowerneck -11.3359 -9.26266 -6.66773
upperneck 22.2851 -12.4884 4.13043
head 9.59311 -5.91851 1.01509
rclavicle -3.79679e-014 -1.59028e-014
rhumerus 19.2954 -3.43404 -76.8355
rradius 58.3492
rwrist -59.0941
rhand -7.77067 -54.2765
rfingers 7.12502
rthumb 18.1295 276.548
lclavicle -3.79679e-014 -1.59028e-014
lhumerus -35.3689 -31.0581 105.673
lradius 105.231
lwrist 73.8932
lhand -16.0885 -11.8167
lfingers 7.12502
lthumb 10.1148 17.9202
rfemur 0 0 0
rtibia 0
rfoot 0 0
rtoes 0
lfemur -10.2589 -8.69744 -12.6624
ltibia 21.968
lfoot -20.0379 12.359
ltoes -55.5651
481
root -0.70807 18.7782 5.51284 4.71134 5.83863 -0.631682
lowerback 5.27462 4.6356 4.40859
upperback 0.44334 6.50142 2.71712
thorax -2.31649 3.20605 -0.110985
lowerneck -11.5346 -9.08039 -6.65656
upperneck 23.0542 -12.2557 4.07993
head 9.8848 -5.79785 1.00564
rclavicle 5.18828e-014 3.18055e-015
rhumerus 17.4875 -2.96611 -76.8268
rradius 60.5009
rwrist -58.1448
rhand -7.67577 -54.9126
rfingers 7.12502
rthumb 18.2208 275.921
lclavicle 5.18828e-014 3.18055e-015
lhumerus -35.4067 -30.9502 105.624
lradius 105.187
lwrist 73.8339
lhand -16.0212 -11.9157
lfingers 7.12502
lthumb 10.1797 17.818
rfemur 0 0 0
rtibia 0
rfoot 0 0
rtoes 0
lfemur -10.2197 -8.7555 -12.6082
ltibia 21.9115
lfoot -20.0182 12.401
ltoes -55.6541
482
root -0.709019 18.7775 5.52729 4.70898 5.86675 -0.587585
lowerback 5.0878 4.55093 4.2734
upperback 0.359898 6.37218 2.65839
thorax -2.31017 3.14261 -0.0773056
lowerneck -11.8123 -8.86897 -6.68766
upperneck 23.9689 -11.9894 4.08348
head 10.2528 -5.65581 1.0214
rclavicle 1.02573e-013 1.59028e-014
rhumerus 16.3511 -0.933366 -75.0095
rradius 61.7507
rwrist -59.4319
rhand -7.85023 -54.9201
rfingers 7.12502
rthumb 18.0529 275.898
lclavicle 1.02573e-013 1.59028e-014
lhumerus -35.3437 -30.7685 105.552
lradius 105.141
lwrist 73.706
lhand -16.0608 -11.9115
lfingers 7.12502
lthumb 10.1415 17.8241
rfemur 0 0 0
rtibia 0
rfoot 0 0
rtoes 0
lfemur -10.1532 -8.85047 -12.6657
ltibia 21.8942
lfoot -20.095 12.4414
ltoes -55.5768
483
root -0.709963 18.7766 5.54243 4.70507 5.87314 -0.513112
lowerback 4.8549 4.4892 4.10441
upperback 0.296567 6.26765 2.5784
thorax -2.25739 3.09288 -0.0435497
lowerneck -12.0274 -8.6516 -6.61619
upperneck 24.854 -11.7078 3.97513
head 10.5878 -5.51295 0.990385
rclavicle -8.12035e-014 2.22639e-014
rhumerus 14.4622 0.15258 -74.3235
rradius 64.3387
rwrist -59.3115
rhand -7.63689 -55.8172
rfingers 7.12502
rthumb 18.2582 275.02
lclavicle -8.12035e-014 2.22639e-014
lhumerus -35.2689 -30.6675 105.462
lradius 105.138
lwrist 73.6128
lhand -16.1338 -11.8752
lfingers 7.12502
lthumb 10.0711 17.8638
rfemur 0 0 0
rtibia 0
rfoot 0 0
rtoes 0
lfemur -10.0743 -8.91561 -12.7579
ltibia 21.8885
lfoot -20.1985 12.419
ltoes -55.4
484
root -0.710216 18.7753 5.55669 4.6753 5.88666 -0.5212
lowerback 4.64464 4.41246 4.03117
upperback 0.220635 6.15103 2.50831
thorax -2.22132 3.0356 -0.0540632
lowerneck -12.2123 -8.39975 -6.53387
upperneck 25.7733 -11.3672 3.81743
head 10.928 -5.34907 0.951058
rclavicle 4.22417e-014 -7.95139e-015
rhumerus 12.659 1.48776 -73.3791
rradius 66.507
rwrist -59.3543
rhand -7.31048 -56.4889
rfingers 7.12502
rthumb 18.5722 274.378
lclavicle 4.22417e-014 -7.95139e-015
lhumerus -35.2365 -30.5903 105.342
lradius 105.131
lwrist 73.5311
lhand -16.1778 -11.9331
lfingers 7.12502
lthumb 10.0286 17.8079
rfemur 0 0 0
rtibia 0
rfoot 0 0
rtoes 0
lfemur -9.98355 -8.96418 -12.7549
ltibia 21.872
lfoot -20.2717 12.413
ltoes -55.3228
485
root -0.709811 18.7737 5.5711 4.6132 5.93126 -0.598323
lowerback 4.44935 4.31161 4.02418
upperback 0.136843 6.00745 2.45
thorax -2.19693 2.96387 -0.0893235
lowerneck -12.4525 -8.12447 -6.49806
upperneck 26.8067 -10.9929 3.69812
head 11.3332 -5.16833 0.935083
rclavicle 4.96962e-016 1.11319e-014
rhumerus 10.9966 3.08293 -72.2448
rradius 68.5547
rwrist -59.5378
rhand -6.91169 -56.9498
rfingers 7.12502
rthumb 18.9557 273.954
lclavicle 4.96962e-016 1.11319e-014
lhumerus -35.1647 -30.4584 105.237
lradius 105.1
lwrist 73.3818
lhand -16.1868 -12.0016
lfingers 7.12502
lthumb 10.02 17.7399
rfemur 0 0 0
rtibia 0
rfoot 0 0
rtoes 0
lfemur -9.87481 -9.062 -12.6792
ltibia 21.8636
lfoot -20.3272 12.4706
ltoes -55.3624
